<?xml version="1.0" standalone="no"?><!DOCTYPE svg PUBLIC "-//W3C//DTD SVG 1.1//EN" "http://www.w3.org/Graphics/SVG/1.1/DTD/svg11.dtd"><svg t="1621783942523" class="icon" viewBox="0 0 1024 1024" version="1.1" xmlns="http://www.w3.org/2000/svg" p-id="3557" xmlns:xlink="http://www.w3.org/1999/xlink" width="200" height="200"><defs><style type="text/css"></style></defs><path d="M0 512c0 281.6 230.4 512 512 512s512-230.4 512-512S793.6 0 512 0 0 230.4 0 512z" fill="#DDDDDD" p-id="3558"></path><path d="M512 1024c140.8 0 264.53-55.47 358.4-145.07-8.53-29.87-17.07-55.47-25.6-68.27-42.67-51.2-221.87-72.53-221.87-72.53L512 768l-106.67-29.87s-179.2 25.6-221.87 72.53c-8.53 12.8-17.07 38.4-25.6 68.27C247.47 968.53 371.2 1024 512 1024z" fill="#F4C80A" p-id="3559"></path><path d="M281.6 456.53c0-29.87 12.8-55.47 34.13-55.47s42.67 17.07 46.93 46.93c4.27 29.87-12.8 55.47-34.13 55.47s-46.93-17.06-46.93-46.93zM426.67 627.2v149.33h170.67V627.2H426.67z m273.06-123.73c-21.33 0-38.4-29.87-34.13-55.47 4.27-29.87 25.6-51.2 46.93-46.93 21.33 0 38.4 29.87 34.13 55.47-4.26 29.86-25.59 51.19-46.93 46.93z" fill="#FFE5C5" p-id="3560"></path><path d="M512 213.33S328.53 221.86 328.53 320v200.53c0 38.4 59.73 149.33 119.47 153.6 29.87 0 64 4.27 64 4.27s38.4-4.27 64-4.27c55.47-4.27 115.2-115.2 115.2-153.6V324.27C695.47 226.13 512 213.33 512 213.33" fill="#FEE1B9" p-id="3561"></path><path d="M622.93 243.2C571.73 217.6 512 213.33 512 213.33c-8.53 0-183.47 8.53-183.47 106.67v200.53c0 38.4 59.73 149.33 119.47 153.6h64s38.4-4.27 64-4.27c55.47-4.27 119.47-115.2 119.47-153.6v-192c0-38.39-29.87-68.26-72.54-81.06" fill="#FFF0DA" p-id="3562"></path><path d="M401.07 729.6L499.2 1024h29.87l98.13-294.4L512 755.2l-110.93-25.6z" fill="#FFFFFF" p-id="3563"></path><path d="M524.8 819.2l25.6-25.6-38.4-38.4-38.4 38.4 25.6 25.6-29.87 149.33L512 1011.2l46.93-42.67L524.8 819.2z" fill="#46382E" p-id="3564"></path><path d="M512 755.2l89.6-46.93 46.93 25.6-76.8 106.67L512 755.2z m0 0l-89.6-46.93-46.93 25.6 93.87 106.67L512 755.2z" fill="#FFFFFF" p-id="3565"></path><path d="M704 439.47h-17.07L665.6 277.33s51.2-21.33 64 42.67c12.8 64-25.6 119.47-25.6 119.47m-392.53 0h17.07l21.33-162.13s-51.2-21.33-64 42.67c-8.54 63.99 25.6 119.46 25.6 119.46" fill="#46382E" p-id="3566"></path><path d="M512 349.87c102.4 0 174.93-12.8 221.87-102.4 0 0-46.93-12.8-153.6-55.47-166.4-68.27-302.93 42.67-256 119.47 12.8 25.6 85.33 38.4 187.73 38.4z" fill="#46382E" p-id="3567"></path></svg>